<?xml version="1.0" standalone="no"?>
<!DOCTYPE svg PUBLIC "-//W3C//DTD SVG 20010904//EN"
 "http://www.w3.org/TR/2001/REC-SVG-20010904/DTD/svg10.dtd">
<svg version="1.0" xmlns="http://www.w3.org/2000/svg"
 width="959.000000pt" height="539.000000pt" viewBox="0 0 959.000000 539.000000"
 preserveAspectRatio="xMidYMid meet">
<metadata>
Created by potrace 1.16, written by Peter Selinger 2001-2019
</metadata>
<g transform="translate(0.000000,539.000000) scale(0.100000,-0.100000)"
fill="#000000" stroke="none">
<path d="M795 4710 c-20 -38 -19 -43 5 -37 24 6 24 8 4 -31 -12 -26 -22 -32
-46 -32 -39 0 -108 -68 -108 -106 0 -20 4 -25 16 -20 9 3 20 6 25 6 5 0 9 7 9
15 0 25 28 17 42 -13 19 -37 12 -52 -21 -52 -25 0 -27 -3 -27 -37 0 -34 14
-63 30 -63 4 0 22 16 41 36 25 25 35 31 35 19 0 -10 7 -15 17 -13 25 5 28 29
4 35 -25 6 -25 6 -5 45 13 25 14 36 5 50 -17 27 -13 48 9 48 13 0 20 7 20 19
0 11 -9 23 -20 26 -25 8 -27 25 -2 18 12 -3 18 1 18 14 0 10 3 31 8 47 6 23 4
27 -8 23 -11 -5 -16 0 -16 13 0 29 -17 24 -35 -10z"/>
<path d="M1614 4560 c-21 -16 -51 -30 -66 -30 -28 0 -39 -22 -18 -35 20 -12 9
-34 -20 -40 -28 -6 -43 -25 -20 -25 6 0 10 -4 10 -10 0 -5 -11 -10 -25 -10
-18 0 -23 4 -19 15 4 9 0 15 -10 15 -9 0 -16 -4 -16 -10 0 -5 -22 -31 -50 -57
-27 -26 -50 -51 -50 -55 0 -4 14 -5 31 -1 30 6 31 5 20 -16 -7 -12 -9 -31 -6
-41 5 -15 0 -23 -19 -32 -14 -6 -26 -16 -26 -23 0 -17 22 -35 44 -35 23 0 86
46 86 63 0 18 67 87 85 87 8 0 15 5 15 10 0 6 11 16 25 22 14 6 25 15 25 19 0
4 10 19 23 32 27 30 57 110 57 155 0 42 -23 42 -76 2z"/>
<path d="M8805 4304 c-44 -35 -81 -69 -83 -74 -2 -6 -10 -10 -17 -10 -7 0 -15
-3 -17 -8 -1 -4 -28 -25 -58 -46 -30 -22 -66 -52 -79 -68 -14 -16 -54 -50 -90
-75 -36 -26 -68 -49 -71 -53 -3 -3 -36 -28 -75 -55 -38 -27 -76 -55 -84 -62
-7 -8 -29 -22 -50 -33 -20 -10 -51 -32 -70 -48 -18 -16 -65 -46 -105 -67 -91
-48 -105 -60 -87 -77 11 -11 12 -10 6 2 -8 13 -7 13 8 1 16 -13 22 -10 52 19
32 31 35 32 35 13 0 -13 -17 -35 -42 -57 -42 -34 -47 -62 -7 -37 12 7 24 10
27 7 3 -3 0 -6 -6 -6 -7 0 -12 -7 -12 -15 0 -18 21 -20 38 -3 14 14 16 42 2
33 -5 -3 -10 -1 -10 4 0 6 4 11 8 11 4 0 25 16 45 35 20 19 41 35 46 35 5 0
11 3 13 8 2 4 21 19 43 34 22 15 66 49 98 77 32 27 72 51 88 55 16 3 29 12 29
20 0 9 12 22 28 30 15 8 36 25 48 38 12 12 30 30 42 39 11 10 24 23 28 31 5 8
30 29 56 46 26 18 61 52 78 76 16 24 43 50 60 58 17 7 33 20 36 28 3 8 37 41
75 73 38 32 69 64 69 72 0 23 -9 18 -95 -51z"/>
<path d="M2100 4209 c-30 -16 -62 -29 -71 -29 -9 0 -24 -9 -34 -20 -26 -29
-113 -72 -117 -58 -3 7 -12 9 -24 4 -19 -7 -19 -8 0 -22 11 -8 15 -14 9 -14
-7 0 -28 -15 -48 -34 -20 -19 -44 -36 -53 -38 -9 -2 -17 -10 -17 -18 0 -23
-57 -78 -75 -73 -10 3 -26 -8 -41 -28 -13 -17 -38 -48 -56 -68 l-31 -36 -7 28
c-8 29 -32 36 -53 15 -9 -9 -12 -9 -12 1 0 7 -5 9 -12 5 -7 -4 -8 -3 -4 4 4 7
14 12 22 12 16 0 20 45 3 55 -7 5 -5 15 6 31 9 14 13 29 10 34 -3 6 -1 10 4
10 6 0 11 7 11 17 0 9 8 34 17 55 12 27 23 38 39 38 16 0 25 11 39 46 17 46
14 67 -7 46 -7 -7 -16 -12 -22 -12 -6 0 -5 5 2 12 15 15 16 48 1 48 -6 0 -20
-11 -31 -25 -11 -14 -24 -23 -29 -20 -15 10 -69 -24 -69 -43 0 -10 -6 -24 -12
-30 -10 -10 -10 -15 -1 -20 13 -8 -28 -62 -47 -62 -18 0 -70 -40 -70 -53 0
-15 -55 -47 -81 -47 -14 0 -19 7 -19 25 0 26 -7 29 -34 19 -21 -8 -20 -28 0
-45 15 -12 13 -15 -17 -23 -19 -5 -59 -9 -89 -10 -30 0 -61 -6 -68 -13 -7 -7
-24 -13 -37 -13 -13 0 -26 -4 -30 -9 -8 -14 28 -31 65 -31 20 0 29 -4 25 -11
-4 -6 0 -16 9 -22 15 -11 12 -18 -29 -59 -33 -34 -45 -55 -45 -77 0 -16 -4
-33 -10 -36 -6 -3 -10 -15 -10 -26 0 -31 85 -27 130 6 19 14 41 25 51 25 22 0
100 35 126 57 55 46 64 53 72 53 5 0 14 7 21 16 17 20 64 14 68 -8 2 -10 -14
-34 -37 -57 -23 -22 -41 -46 -41 -52 0 -7 -12 -28 -27 -48 -16 -20 -28 -43
-28 -51 0 -8 -13 -21 -28 -28 -30 -14 -34 -46 -7 -48 8 -1 29 -2 45 -3 l30 -2
-34 -15 c-19 -8 -46 -28 -60 -44 -93 -104 -90 -98 -66 -156 10 -25 20 -34 30
-30 8 3 15 1 15 -5 0 -6 5 -7 10 -4 19 11 10 -7 -12 -26 -17 -16 -19 -23 -11
-42 11 -23 1 -67 -16 -67 -16 0 -21 -44 -6 -52 14 -9 15 -44 1 -67 -5 -8 -3
-17 5 -22 11 -7 12 -12 2 -29 -7 -11 -13 -30 -13 -43 0 -19 8 -25 46 -35 26
-7 49 -10 52 -7 3 3 13 -13 23 -35 19 -43 47 -57 34 -17 -4 12 -10 41 -14 65
-7 38 -5 44 13 54 11 6 27 17 34 25 7 7 23 13 35 13 12 0 34 13 50 29 31 34
33 41 11 41 -12 0 -4 14 25 45 22 24 41 49 41 55 0 5 20 15 45 22 25 7 45 18
45 25 0 7 -5 13 -11 13 -5 0 -7 -5 -3 -12 4 -7 3 -8 -5 -4 -13 9 -5 26 12 26
7 0 24 7 40 14 25 14 27 13 27 -3 0 -10 -16 -32 -35 -50 -20 -18 -33 -36 -29
-42 3 -5 1 -15 -5 -22 -7 -9 -7 -27 0 -57 8 -36 7 -45 -6 -52 -9 -6 -15 -23
-15 -43 0 -27 -9 -43 -41 -75 -24 -23 -39 -47 -37 -57 2 -12 -7 -24 -27 -34
-38 -21 -49 -55 -14 -45 62 17 75 17 98 -1 l23 -19 -25 -38 c-15 -21 -29 -46
-32 -56 -9 -29 -35 -33 -55 -8 -26 33 -25 38 11 57 36 19 57 46 46 57 -4 4
-17 2 -30 -5 -13 -7 -27 -11 -33 -10 -19 3 -35 -1 -30 -9 3 -5 0 -9 -7 -10 -7
-1 -36 -3 -65 -5 -61 -5 -66 -8 -58 -35 7 -20 64 -42 110 -42 14 0 26 -4 26
-10 0 -5 7 -10 15 -10 28 0 15 -25 -22 -45 -21 -11 -44 -26 -51 -32 -7 -7 -34
-13 -60 -13 -82 0 -195 -28 -217 -55 -11 -13 -35 -31 -52 -39 -18 -9 -33 -23
-33 -32 0 -8 -16 -24 -35 -35 -24 -14 -35 -28 -35 -44 0 -13 -6 -25 -14 -28
-8 -3 -17 -19 -21 -36 -4 -17 -15 -37 -25 -44 -10 -7 -20 -26 -22 -42 -3 -26
1 -30 22 -33 14 -2 35 -8 47 -14 17 -9 31 -6 67 11 25 11 50 21 55 21 5 0 23
13 40 29 17 16 31 27 31 24 0 -2 12 4 28 14 31 21 64 38 105 53 15 5 27 14 27
20 0 22 29 42 52 34 48 -14 50 -25 12 -55 -20 -16 -45 -29 -55 -29 -28 0 -59
-36 -59 -70 0 -31 -22 -50 -60 -50 -27 0 -54 -26 -46 -45 6 -18 74 -31 88 -17
6 6 16 8 23 6 6 -3 18 2 25 11 19 22 50 19 50 -6 0 -11 -5 -17 -10 -14 -6 4
-8 11 -5 16 4 5 2 9 -3 9 -16 0 -22 -13 -11 -26 8 -9 5 -11 -10 -7 -18 5 -21
1 -21 -25 0 -36 36 -56 52 -28 5 9 13 14 19 11 13 -8 39 20 39 41 0 23 17 6
22 -21 2 -11 10 -20 18 -20 18 0 43 -31 36 -44 -5 -8 -45 -19 -91 -26 -11 -2
-30 -6 -41 -10 -17 -5 -23 -2 -27 15 -5 18 -11 22 -36 18 -16 -2 -28 -1 -25 4
3 4 -11 8 -30 8 -19 0 -38 4 -41 10 -9 14 -44 -11 -38 -27 3 -7 1 -13 -5 -13
-5 0 -12 -9 -15 -21 -5 -20 -8 -19 -37 15 -18 20 -39 36 -49 36 -12 0 -13 -2
-3 -9 10 -6 5 -10 -17 -14 -35 -7 -43 -37 -11 -37 11 0 20 -4 20 -10 0 -5 6
-10 14 -10 7 0 19 -6 25 -14 10 -11 9 -16 -5 -24 -12 -7 -15 -19 -12 -44 4
-36 -9 -56 -49 -77 -36 -18 -27 -46 26 -88 41 -33 46 -41 33 -49 -17 -11 -22
-74 -8 -113 8 -22 6 -23 -20 -18 -30 5 -54 0 -54 -13 0 -9 57 -40 72 -40 5 0
17 -7 25 -16 19 -19 59 -11 89 17 11 10 29 19 40 19 12 0 25 13 34 33 8 18 24
33 35 35 18 3 65 60 65 80 0 5 29 14 65 21 l64 13 3 51 c2 38 7 53 19 55 13 2
17 -8 21 -46 5 -47 42 -114 75 -135 53 -33 111 -97 133 -143 24 -52 97 -144
154 -194 15 -14 56 -51 90 -84 61 -59 176 -143 176 -129 0 4 6 -1 13 -12 8
-10 19 -15 25 -11 5 3 12 2 14 -2 1 -5 21 -15 43 -24 31 -12 41 -22 43 -42 4
-35 18 -33 31 5 9 26 14 29 33 23 40 -12 91 -25 138 -34 64 -12 117 -25 180
-43 30 -8 69 -15 85 -14 17 2 35 -1 41 -5 6 -4 30 -9 55 -12 24 -2 53 -8 63
-12 14 -5 17 -4 12 4 -4 7 -1 12 8 12 9 0 16 -9 16 -21 0 -11 -4 -17 -10 -14
-5 3 -10 2 -10 -4 0 -6 17 -13 38 -17 20 -4 47 -13 59 -21 44 -29 428 -36 448
-9 6 8 29 18 50 22 22 4 43 11 46 17 7 10 141 11 172 1 17 -5 19 -2 15 20 -3
15 -1 29 5 33 6 4 47 10 91 14 45 4 114 11 154 15 47 4 72 3 72 -3 0 -15 -25
-34 -33 -26 -4 3 -17 1 -30 -5 -12 -6 -49 -13 -82 -16 -102 -10 -148 -20 -153
-33 -3 -10 16 -13 73 -13 42 0 74 4 71 8 -3 5 8 6 25 4 16 -2 29 -10 29 -18 0
-8 9 -14 21 -14 11 0 17 4 14 10 -3 5 -2 10 4 10 5 0 12 -6 15 -12 5 -10 7
-10 12 -1 4 10 9 9 21 -3 12 -12 28 -14 67 -9 86 10 107 16 103 28 -3 8 -26
11 -68 9 -58 -2 -62 -1 -40 11 14 8 56 14 104 15 69 1 83 4 97 22 l15 20 13
-21 c8 -12 9 -18 3 -14 -6 3 -11 -1 -11 -9 0 -11 9 -16 30 -16 20 0 30 5 30
15 0 17 40 29 68 20 11 -3 23 -1 27 6 5 7 23 9 51 4 34 -5 45 -3 50 9 3 8 13
17 21 20 13 5 14 4 4 -8 -18 -21 3 -56 34 -56 43 0 40 35 -5 53 -17 6 53 11
116 8 44 -3 67 14 43 31 -8 5 -41 7 -74 4 -33 -2 -53 -2 -45 1 8 3 20 12 27
21 10 11 31 14 95 13 72 -2 84 0 98 18 12 16 29 21 84 23 38 2 71 8 73 13 5
16 -74 37 -97 25 -26 -14 -30 -13 -23 6 4 11 0 15 -13 13 -10 -1 -27 1 -36 5
-9 4 -25 3 -37 -3 -11 -6 -33 -11 -48 -11 -16 0 -33 -4 -39 -10 -5 -5 -44 -13
-84 -16 -54 -4 -71 -2 -60 5 8 6 30 11 48 11 17 0 32 5 32 11 0 9 -17 47 -26
58 -3 3 -66 -38 -74 -50 -3 -4 -36 -8 -75 -10 -54 -3 -69 -1 -67 9 4 21 -26
44 -48 37 -11 -3 -20 -3 -20 2 0 4 -14 14 -31 22 -26 12 -32 11 -49 -4 -16
-14 -28 -16 -67 -9 -26 5 -61 8 -78 7 -41 -3 -154 -4 -185 -3 -20 0 -22 2 -10
10 8 5 25 10 37 10 12 0 42 7 65 15 24 8 84 19 133 25 50 5 115 16 145 24 110
28 110 27 104 11 -4 -11 0 -15 16 -15 17 0 21 5 17 19 -3 14 2 21 17 25 34 9
46 7 40 -8 -7 -18 9 -28 31 -20 10 4 15 14 12 25 -6 22 25 35 49 21 12 -6 28
-5 50 4 21 9 35 10 39 4 3 -6 1 -10 -4 -10 -6 0 -11 -5 -11 -10 0 -12 119 -4
157 11 13 5 35 9 49 9 16 0 24 6 24 16 0 14 -7 16 -45 11 -25 -4 -45 -4 -45
-2 0 10 55 27 82 27 18 0 39 10 57 29 20 20 40 29 63 30 36 1 89 27 96 48 3 9
-2 11 -18 6 -15 -5 -20 -4 -16 4 4 6 15 11 26 11 10 0 20 7 24 15 3 8 17 15
31 15 15 0 24 3 22 8 -3 4 14 8 36 9 100 5 136 10 151 22 29 24 18 34 -29 27
-57 -9 -63 13 -10 38 35 17 46 35 23 37 -23 1 26 18 55 18 17 1 27 6 27 16 0
12 -15 15 -77 15 l-78 1 30 24 c18 15 43 25 61 25 17 0 37 7 44 15 8 10 30 15
61 15 26 0 51 5 54 10 3 6 19 10 35 10 17 0 40 10 56 25 15 14 32 25 38 26 49
2 101 11 116 19 10 6 28 10 40 10 12 0 19 4 16 9 -4 5 3 7 13 4 10 -3 30 1 42
8 13 7 30 12 36 11 7 -2 22 5 32 15 11 10 49 27 85 38 36 11 66 25 66 32 0 6
-9 9 -20 6 -11 -3 -20 -9 -20 -14 0 -5 -4 -9 -10 -9 -5 0 -9 5 -7 12 1 7 -3
12 -10 13 -6 0 -15 4 -20 9 -4 5 4 6 20 2 25 -6 57 10 57 28 0 11 -36 6 -48
-6 -9 -9 -12 -9 -12 4 0 10 16 20 48 28 26 6 57 16 70 21 13 5 31 9 40 9 9 0
28 9 42 20 44 34 85 21 115 -36 15 -28 15 -28 21 -6 4 12 13 22 20 22 8 0 23
9 34 20 11 11 24 20 29 20 5 0 14 7 21 15 16 20 40 19 40 -1 0 -9 6 -14 13
-11 6 2 29 10 50 18 20 7 37 16 37 20 0 17 -22 19 -52 5 -17 -9 -34 -13 -37
-10 -3 4 0 9 7 11 6 3 12 11 12 19 0 16 -36 19 -45 4 -8 -12 -35 -13 -35 -1 0
5 23 17 50 27 28 10 58 25 68 34 9 8 22 15 27 15 24 1 116 28 121 36 3 5 13 5
24 -1 26 -14 27 -13 34 14 3 13 18 29 33 35 16 6 39 20 52 30 l24 18 -22 24
c-21 23 -22 23 -49 6 -46 -30 -152 -77 -172 -77 -11 0 -20 -4 -20 -9 0 -13
-48 -20 -79 -12 l-26 8 24 12 c30 17 14 35 -20 23 -29 -11 -50 -5 -43 12 2 6
-8 17 -23 22 l-28 11 28 8 c15 4 27 13 27 21 0 16 -16 19 -24 5 -8 -12 -55
-20 -62 -10 -3 5 3 9 13 9 11 0 23 4 28 8 6 5 44 21 85 36 41 15 91 34 110 41
19 7 36 18 38 25 3 8 0 10 -7 6 -6 -4 -11 -3 -11 3 0 5 5 13 10 16 21 13 8 23
-26 20 l-36 -3 33 34 c18 19 50 42 71 51 21 9 38 24 38 33 0 9 13 24 30 33 16
10 35 23 42 30 7 7 26 18 41 26 15 8 45 30 67 48 21 18 43 33 49 33 6 0 11 3
11 8 0 4 14 14 32 21 18 8 50 27 73 42 22 14 50 29 61 33 12 4 29 15 39 26 10
11 23 20 30 20 6 0 21 9 33 20 18 17 22 18 22 5 0 -8 5 -15 10 -15 6 0 10 4
10 10 0 5 3 9 8 8 4 0 15 2 25 6 18 9 24 36 6 36 -5 0 -8 -3 -6 -7 3 -5 -6 -9
-19 -9 -37 -3 -23 20 14 24 20 2 32 9 32 18 0 8 10 14 24 14 14 0 31 8 38 18
7 10 27 28 45 40 18 13 30 28 27 35 -3 9 5 13 23 12 23 0 28 4 27 23 -1 26 0
26 26 10 24 -15 37 -4 20 17 -8 9 -8 15 -2 15 6 0 27 15 47 34 20 19 50 41 68
49 39 19 91 72 83 85 -3 5 10 27 29 48 38 41 43 54 22 54 -25 0 -77 -31 -77
-46 0 -8 -4 -12 -10 -9 -5 3 -31 -8 -57 -25 -47 -31 -47 -31 -15 -3 34 29 34
43 0 43 -11 0 -18 7 -18 20 0 27 -22 25 -48 -5 -12 -14 -27 -25 -33 -25 -6 0
-28 -13 -49 -30 -30 -24 -39 -27 -43 -15 -4 9 7 22 29 35 18 12 34 26 34 31 0
18 -67 9 -85 -11 -10 -11 -25 -20 -33 -20 -10 0 -3 11 17 31 18 17 30 37 27
45 -3 7 4 20 14 27 11 8 17 17 13 20 -9 10 -35 9 -30 0 3 -5 -9 -9 -25 -10
-17 -1 -38 -9 -48 -18 -9 -8 -20 -15 -24 -15 -4 0 -21 -9 -37 -21 -16 -11 -29
-16 -29 -10 0 6 14 17 30 26 28 14 42 45 21 45 -5 0 -53 -22 -107 -49 -55 -27
-117 -54 -139 -61 -22 -7 -49 -16 -60 -21 -40 -15 -77 -20 -88 -10 -8 6 -26 3
-52 -10 -21 -11 -69 -24 -105 -31 -36 -6 -69 -15 -75 -20 -5 -4 -26 -8 -47 -8
-42 0 -126 -20 -205 -50 -51 -19 -103 -26 -103 -14 0 10 29 34 42 34 7 0 31 7
53 16 22 8 48 17 58 21 9 3 17 13 17 23 0 9 11 22 25 28 15 7 25 20 25 32 0
13 4 19 11 14 10 -6 28 11 29 27 0 15 -63 15 -83 0 -44 -32 -67 -41 -120 -47
-51 -6 -97 -28 -84 -40 3 -3 32 -2 64 4 57 10 83 8 47 -3 -10 -4 -27 -11 -36
-16 -23 -12 -65 -12 -73 1 -3 6 -17 8 -31 6 -16 -3 -27 0 -31 10 -8 21 -27 17
-51 -11 -34 -39 -29 -57 16 -53 31 2 36 0 34 -14 -2 -15 3 -17 30 -13 33 5 33
5 6 -6 -19 -7 -28 -18 -28 -33 0 -18 -12 -28 -60 -49 -33 -15 -66 -27 -74 -27
-22 0 -123 -27 -142 -38 -9 -5 -25 -7 -34 -5 -10 3 -21 0 -24 -6 -4 -6 -23
-11 -42 -11 -20 0 -34 -5 -34 -12 0 -10 -3 -9 -9 1 -11 18 -31 5 -31 -20 0
-12 4 -17 11 -14 6 4 5 -2 -2 -13 -9 -15 -21 -20 -41 -17 -15 2 -41 -2 -58 -8
-25 -9 -33 -9 -39 2 -6 9 -14 10 -27 3 -29 -15 -104 -30 -104 -21 0 4 -14 15
-32 23 -33 17 -34 17 -59 -26 -14 -25 -95 -60 -154 -67 -74 -9 -67 -32 10 -35
62 -2 94 7 108 30 4 8 17 14 27 14 11 0 20 5 20 12 0 6 7 4 18 -5 10 -10 24
-17 30 -17 7 0 12 -7 12 -15 0 -12 13 -15 55 -15 30 0 55 5 55 10 0 6 9 10 20
10 11 0 20 6 20 14 0 8 15 17 34 20 19 4 36 11 38 16 2 5 26 10 53 11 28 1 55
5 60 9 6 4 25 10 44 14 34 6 34 6 16 -15 -15 -16 -16 -22 -6 -28 8 -5 -9 -11
-45 -16 -32 -4 -74 -13 -94 -20 -59 -21 -146 -45 -164 -45 -9 0 -31 -7 -48
-16 -17 -9 -59 -27 -94 -40 -49 -18 -62 -20 -58 -9 7 18 -17 20 -35 3 -11 -11
-13 -10 -8 4 8 24 -11 33 -31 15 -9 -8 -38 -17 -63 -20 -26 -4 -63 -14 -83
-23 -29 -14 -40 -15 -61 -6 -18 8 -32 9 -45 2 -25 -13 -41 -13 -38 1 2 6 -13
13 -32 15 -19 2 -53 6 -76 9 -33 6 -42 4 -48 -10 -3 -9 -3 -22 1 -28 3 -7 3
-9 -2 -5 -5 5 -14 -1 -22 -12 -10 -14 -25 -19 -51 -19 -20 1 -50 -1 -67 -5
-25 -5 -25 -4 -5 2 l25 8 -29 6 c-19 4 -39 0 -55 -11 -19 -12 -45 -15 -111
-13 -98 3 -178 -17 -144 -36 10 -6 14 -12 8 -12 -5 0 -15 5 -20 10 -7 7 -38 8
-83 4 -44 -4 -67 -10 -59 -15 9 -6 5 -8 -12 -7 -51 3 -111 -2 -107 -9 3 -5
-36 -8 -86 -8 -51 0 -132 -4 -182 -8 -49 -5 -182 -9 -294 -9 -177 0 -206 2
-216 16 -9 12 -34 17 -96 21 -107 5 -119 7 -112 18 3 5 12 6 22 2 10 -4 13 -3
6 4 -6 6 -30 6 -65 0 -32 -5 -68 -5 -85 0 -16 5 -63 14 -102 21 -40 6 -73 15
-73 18 0 4 -15 14 -32 21 -119 52 -177 81 -183 90 -3 6 -39 37 -78 68 -40 32
-82 69 -94 83 -19 22 -28 25 -81 23 l-60 -2 5 38 c5 33 2 39 -18 46 -34 11
-41 13 -71 14 -26 1 -26 2 -12 29 7 15 14 41 14 59 0 17 5 35 10 38 6 3 10 15
10 26 0 12 7 19 18 19 28 0 72 64 64 93 -1 5 2 6 7 3 5 -4 28 -3 51 0 35 6 40
9 34 27 -4 13 -2 17 5 13 10 -6 67 26 81 45 3 4 23 10 45 14 45 8 85 30 85 46
0 7 -10 9 -24 5 -14 -3 -28 -2 -31 4 -4 6 5 10 19 10 27 0 30 7 20 34 -8 21
-26 20 -54 -4 -13 -11 -31 -20 -41 -20 -10 0 -21 -4 -24 -10 -3 -5 -15 -10
-25 -10 -10 0 -32 -16 -48 -36 -17 -20 -35 -33 -41 -30 -5 4 -34 -5 -63 -19
-29 -15 -80 -31 -113 -36 -33 -6 -62 -13 -65 -17 -5 -7 -50 -12 -50 -5 0 2 5
12 12 22 17 28 3 54 -27 48 -40 -7 -38 8 5 58 45 52 47 60 23 74 -15 9 -16 10
-2 11 19 0 55 37 46 46 -4 4 -13 1 -22 -6 -10 -8 -15 -9 -15 -1 0 15 -31 13
-53 -4 -11 -7 -26 -11 -35 -8 -12 5 -14 1 -10 -15 4 -13 0 -23 -8 -26 -8 -3
-14 -12 -14 -19 0 -8 -7 -20 -15 -27 -10 -9 -15 -9 -15 -1 0 21 -38 11 -43
-11 -4 -12 -9 -20 -12 -17 -9 9 16 69 29 69 6 0 29 16 51 35 22 19 48 35 57
35 9 0 29 11 43 25 26 27 32 45 15 45 -6 0 -5 8 2 20 7 11 21 20 31 20 22 0
34 29 16 40 -11 7 -10 10 5 16 12 5 23 2 31 -9 17 -24 20 -22 43 23 24 50 19
92 -12 88 -11 -2 -22 -9 -22 -15 -1 -7 -2 -22 -3 -32 0 -10 -8 -22 -17 -25
-13 -5 -15 -1 -10 20 6 24 -7 54 -23 54 -4 0 -15 -14 -25 -31 -18 -30 -18 -30
-33 -10 -13 19 -12 23 11 48 27 28 44 35 89 34 25 0 27 2 20 27 -14 50 -7 89
21 127 22 29 26 39 16 48 -10 9 -14 9 -17 -2 -3 -7 -17 -23 -32 -35 -45 -37
-102 -100 -118 -131 -16 -31 -79 -95 -94 -95 -13 0 -39 -30 -39 -46 0 -8 7
-14 15 -14 9 0 26 -7 39 -15 13 -9 28 -14 34 -13 5 2 19 -6 29 -17 17 -18 18
-23 5 -47 -7 -16 -19 -28 -26 -28 -7 0 -36 -25 -65 -55 -29 -30 -59 -55 -66
-55 -8 0 -23 -12 -34 -26 -12 -15 -21 -22 -21 -15 0 16 -32 14 -58 -5 -12 -8
-26 -13 -30 -10 -5 3 -25 0 -46 -6 -25 -8 -36 -17 -34 -27 3 -15 27 -19 54
-10 7 2 13 0 15 -6 3 -15 -64 -52 -69 -37 -2 7 -20 12 -39 12 -45 0 -104 -44
-159 -116 -42 -57 -106 -96 -125 -77 -8 8 2 24 35 57 34 35 46 54 46 76 0 17
4 30 8 30 5 0 19 20 32 45 13 25 27 45 32 45 5 0 8 8 7 18 -4 31 13 53 57 74
42 19 57 42 33 50 -8 3 -8 15 1 45 8 26 17 40 25 36 12 -4 35 10 74 48 9 8 29
23 44 33 15 9 32 27 37 40 7 19 14 22 34 19 15 -3 28 -9 31 -13 3 -5 -3 -6
-12 -4 -23 6 -79 -39 -69 -54 15 -25 63 -13 95 23 17 19 37 35 44 35 20 0 46
32 31 37 -22 8 10 78 59 128 26 27 47 55 47 62 0 7 14 26 31 44 67 69 8 101
-91 48z"/>
<path d="M8175 3524 c-49 -35 -105 -71 -122 -79 -18 -9 -33 -19 -33 -24 0 -5
-15 -15 -34 -21 -31 -10 -46 -26 -46 -51 0 -5 16 -9 35 -9 28 0 44 8 77 40 22
22 54 48 72 57 17 8 48 33 69 54 21 21 51 46 68 56 29 17 40 44 17 42 -7 0
-53 -29 -103 -65z"/>
<path d="M8129 2753 c-2 -5 -26 -22 -54 -37 -27 -16 -66 -42 -86 -58 -20 -15
-42 -28 -48 -28 -6 0 -11 -4 -11 -10 0 -5 -5 -10 -11 -10 -5 0 -26 -11 -46
-25 -34 -23 -61 -25 -48 -4 3 5 -1 6 -9 3 -19 -7 -21 -24 -4 -24 7 0 -4 -12
-25 -27 -20 -14 -37 -30 -37 -34 0 -5 -7 -6 -15 -3 -8 4 -15 1 -15 -5 0 -6 -6
-11 -14 -11 -14 0 -31 -29 -22 -38 3 -2 36 13 73 34 37 21 89 49 116 62 26 13
47 27 47 31 0 10 46 31 68 31 21 0 167 123 167 141 0 14 -21 24 -26 12z"/>
<path d="M7495 2392 c-89 -52 -106 -75 -49 -68 31 4 34 3 22 -11 -11 -14 -10
-16 12 -10 14 3 42 9 62 12 20 4 51 20 69 36 18 16 41 31 51 35 10 3 18 14 18
25 0 18 -4 20 -32 14 -18 -4 -35 -11 -38 -14 -7 -10 -115 -71 -125 -71 -4 0 9
11 29 25 20 14 39 25 42 25 9 0 29 24 32 38 3 18 -5 15 -93 -36z"/>
<path d="M7350 2191 c-59 -32 -122 -61 -132 -61 -7 0 -35 -11 -63 -25 -27 -13
-55 -25 -62 -25 -6 0 -18 -6 -25 -12 -24 -23 -57 -38 -81 -38 -25 0 -61 -22
-112 -68 -8 -7 -17 -13 -20 -13 -2 0 -10 -1 -17 -4 -7 -2 -26 -5 -43 -7 -23
-2 -31 -9 -33 -26 -3 -22 -1 -23 30 -17 37 8 88 35 88 47 0 4 9 8 19 8 11 0
23 5 26 10 3 6 15 10 25 10 22 0 120 48 120 58 0 4 21 14 46 21 40 12 49 12
78 -4 31 -17 34 -17 78 4 53 24 67 39 47 52 -10 6 -8 9 9 9 12 0 22 -4 22 -10
0 -18 29 -11 42 10 7 11 21 20 30 20 29 0 21 27 -12 42 -16 7 -30 16 -30 20 0
10 -11 9 -30 -1z"/>
<path d="M7270 1545 c-14 -8 -30 -14 -36 -15 -6 0 -33 -12 -60 -27 -54 -30
-84 -38 -84 -23 0 18 -41 12 -182 -25 -28 -7 -50 -9 -56 -3 -5 5 -20 5 -36 -2
-15 -5 -36 -10 -46 -10 -20 0 -80 -52 -80 -70 0 -8 -9 -10 -27 -6 -17 5 -29 3
-34 -6 -13 -20 -11 -25 16 -32 14 -4 25 -11 25 -16 0 -6 16 -8 42 -4 28 5 39
4 34 -4 -10 -16 10 -23 36 -13 13 5 44 17 71 26 58 20 60 32 7 32 -22 0 -40
-3 -40 -7 0 -5 -43 -30 -53 -30 -2 0 21 25 50 56 42 45 57 54 74 49 12 -4 19
-3 16 1 -3 5 9 10 26 11 18 2 44 8 60 14 35 15 45 6 18 -18 -25 -21 -27 -33
-6 -33 31 0 8 -28 -41 -50 -24 -11 -30 -18 -26 -37 5 -28 16 -29 41 -4 11 11
21 17 24 15 8 -8 85 27 91 41 3 8 13 11 25 8 13 -3 21 -1 21 7 0 7 -7 10 -15
6 -8 -3 -15 -2 -15 2 0 14 24 32 42 32 26 0 22 28 -4 32 -18 3 -10 11 42 37
36 18 66 37 68 42 2 4 10 5 19 2 12 -5 14 -3 8 7 -5 8 -4 11 3 7 12 -8 42 2
42 14 0 13 -32 10 -60 -6z"/>
<path d="M7350 1471 c-78 -29 -131 -57 -123 -66 5 -4 3 -5 -4 -1 -23 13 -62
-6 -78 -37 -20 -41 -20 -44 16 -45 42 -1 44 -6 11 -22 -51 -26 -82 -51 -82
-67 0 -12 6 -13 28 -8 15 4 35 7 45 7 10 0 20 5 23 12 3 8 15 11 29 8 16 -3
40 6 72 28 27 17 60 34 75 37 25 5 58 48 58 75 0 18 -52 6 -112 -25 -78 -41
-101 -50 -93 -37 3 6 11 10 16 10 6 0 16 6 24 13 7 6 24 20 37 30 13 9 37 28
54 42 18 14 36 25 42 25 12 0 24 28 14 33 -4 2 -27 -3 -52 -12z"/>
<path d="M6096 1019 c4 -7 0 -9 -12 -5 -21 6 -50 -27 -39 -44 3 -6 -1 -7 -9
-4 -8 3 -42 -2 -76 -10 -34 -9 -72 -16 -84 -16 -12 0 -26 -4 -31 -9 -6 -5 -26
-11 -45 -13 -28 -2 -36 -8 -38 -27 -3 -21 -1 -23 20 -17 12 4 34 10 48 13 14
2 32 7 40 10 8 3 33 8 54 10 22 2 58 13 80 24 22 10 55 19 73 19 25 0 32 4 27
13 -6 10 -4 10 7 0 16 -16 39 -16 76 -2 l28 11 -28 10 c-20 7 -32 6 -43 -3
-21 -17 -37 7 -23 33 8 15 6 18 -11 18 -13 0 -19 -4 -14 -11z"/>
<path d="M6435 989 c-27 -11 -68 -24 -90 -29 -22 -5 -58 -14 -80 -20 -35 -9
-94 -18 -145 -21 -8 -1 -53 -9 -100 -20 -172 -38 -329 -52 -373 -34 -10 4 -29
3 -43 -4 -14 -6 -41 -11 -60 -11 -27 0 -37 -5 -41 -19 -5 -19 -14 -22 -180
-49 -36 -6 -50 -6 -46 1 4 7 0 8 -13 2 -22 -9 -47 -12 -128 -14 -50 -1 -57 -3
-52 -18 9 -23 -12 -33 -42 -20 -21 10 -27 8 -44 -12 -26 -34 -10 -45 40 -28
23 8 39 11 36 6 -9 -15 15 -10 43 9 16 10 24 12 19 4 -6 -10 8 -12 71 -7 43 4
94 11 113 16 19 5 51 9 71 9 20 0 56 7 80 15 24 9 62 18 84 20 54 5 145 21
230 40 38 8 79 15 90 15 12 0 38 9 60 20 22 11 53 20 70 20 17 0 47 9 66 19
21 11 40 16 45 11 11 -11 89 4 264 50 79 21 129 45 130 63 0 11 -21 7 -75 -14z"/>
<path d="M5048 856 c-36 -6 -70 -14 -74 -18 -4 -5 -29 -8 -56 -8 -46 0 -70
-18 -28 -21 11 -1 26 -2 33 -3 13 -1 32 -25 25 -32 -3 -2 -49 -4 -104 -5 -54
-1 -107 -6 -117 -11 -20 -10 -12 -32 10 -24 20 8 93 -16 93 -31 0 -20 18 -15
32 7 15 23 40 27 32 5 -5 -11 1 -15 19 -15 37 0 56 10 50 26 -3 8 -10 11 -17
8 -6 -3 3 5 19 20 23 19 41 25 78 26 50 0 62 15 25 30 -13 5 -18 9 -13 10 75
11 115 25 115 40 0 12 -32 11 -122 -4z"/>
<path d="M4480 670 c-14 -4 -68 -8 -121 -9 -63 -1 -106 -6 -126 -16 -17 -8
-58 -18 -92 -21 -98 -11 -75 -44 31 -44 34 0 50 5 58 18 10 16 10 16 20 0 12
-19 40 -25 40 -8 0 6 -7 10 -15 10 -8 0 -15 4 -15 9 0 10 77 24 89 16 9 -5
171 21 178 29 6 6 -6 26 -15 25 -4 -1 -18 -5 -32 -9z"/>
</g>
</svg>
