<?xml version="1.0" standalone="no"?>
<!DOCTYPE svg PUBLIC "-//W3C//DTD SVG 20010904//EN"
 "http://www.w3.org/TR/2001/REC-SVG-20010904/DTD/svg10.dtd">
<svg version="1.0" xmlns="http://www.w3.org/2000/svg"
 width="3600.000000pt" height="350.000000pt" viewBox="0 0 3909.000000 622.000000"
 preserveAspectRatio="xMidYMid meet">
<metadata>
Created by potrace 1.16, written by Peter Selinger 2001-2019
</metadata>
<g transform="translate(0.000000,622.000000) scale(0.100000,-0.100000)"
fill="#000000" stroke="none">
<path d="M0 3969 l1 -2254 372 -212 372 -212 3 1730 c1 951 4 1729 7 1729 3 0
496 -284 1096 -630 l1092 -630 443 256 c244 141 444 259 444 264 0 7 -3777
2192 -3813 2206 -16 6 -17 -152 -17 -2247z"/>
<path d="M1577 5963 c-322 -188 -366 -217 -350 -228 14 -9 2738 -1582 2946
-1700 l38 -22 -1093 -631 -1093 -631 -3 -521 -2 -521 58 33 c32 18 896 517
1920 1108 1386 801 1858 1078 1849 1086 -20 18 -3869 2237 -3886 2240 -9 2
-182 -94 -384 -213z"/>
<path d="M28497 3386 c-614 -1124 -1117 -2047 -1117 -2050 0 -3 294 -6 653 -6
l654 0 164 305 164 304 600 0 600 0 170 -304 170 -305 647 0 c357 0 648 3 648
8 -1 14 -2219 4087 -2227 4089 -5 2 -512 -916 -1126 -2041z m1322 -236 l188
-405 -385 -3 c-212 -1 -387 -1 -389 1 -3 3 329 714 373 799 9 18 19 29 21 23
2 -5 88 -192 192 -415z"/>
<path d="M7260 3255 l0 -1925 1425 0 1425 0 0 435 0 435 -875 0 -875 0 0 355
0 355 815 0 815 0 0 420 0 420 -815 0 -815 0 0 275 0 275 875 0 875 0 0 440 0
440 -1425 0 -1425 0 0 -1925z"/>
<path d="M10840 5177 c0 -10 2241 -4102 2247 -4104 7 -2 2233 4084 2233 4100
0 4 -302 6 -672 5 l-671 -3 -438 -1020 c-241 -561 -441 -1026 -446 -1033 -5
-8 -166 357 -452 1022 l-443 1036 -679 0 c-373 0 -679 -1 -679 -3z"/>
<path d="M16120 3255 l0 -1925 1425 0 1425 0 0 435 0 435 -875 0 -875 0 0 355
0 355 820 0 820 0 0 420 0 420 -820 0 -820 0 0 275 0 275 875 0 875 0 0 440 0
440 -1425 0 -1425 0 0 -1925z"/>
<path d="M20150 3255 l0 -1925 575 0 575 0 0 630 0 630 118 0 117 -1 395 -625
c217 -345 399 -628 405 -630 5 -2 308 -3 672 -2 l663 3 -508 700 -509 700 101
50 c355 177 559 437 643 817 14 67 18 125 17 298 0 207 -2 219 -31 332 -90
338 -287 581 -599 740 -233 119 -458 175 -799 198 -82 5 -529 10 -992 10
l-843 0 0 -1925z m1743 987 c99 -27 187 -74 232 -123 110 -122 132 -310 55
-466 -35 -71 -88 -121 -172 -164 -104 -53 -159 -61 -445 -66 l-263 -5 0 427 0
427 258 -5 c219 -4 268 -8 335 -25z"/>
<path d="M24490 3255 l0 -1925 550 0 550 0 0 715 0 715 730 0 730 0 0 430 0
430 -730 0 -730 0 0 320 0 320 760 0 760 0 0 460 0 460 -1310 0 -1310 0 0
-1925z"/>
<path d="M32660 3255 l0 -1925 1400 0 1400 0 0 460 0 460 -830 0 -830 0 0
1465 0 1465 -570 0 -570 0 0 -1925z"/>
<path d="M36290 3255 l0 -1925 1400 0 1400 0 0 460 0 460 -830 0 -830 0 0
1465 0 1465 -570 0 -570 0 0 -1925z"/>
<path d="M940 2214 l0 -2216 23 14 c12 8 889 516 1950 1127 l1927 1113 0 434
c0 239 -1 434 -3 434 -2 0 -677 -389 -1501 -865 -823 -476 -1499 -865 -1501
-865 -3 0 -6 570 -7 1267 l-3 1268 -435 252 c-239 138 -438 252 -442 252 -5 1
-8 -996 -8 -2215z"/>
</g>
</svg>
